<?xml version="1.0" encoding="UTF-8"?>
<svg id="Layer_1" xmlns="http://www.w3.org/2000/svg" version="1.1" viewBox="0 0 434.3 102">
  <!-- Generator: Adobe Illustrator 30.3.0, SVG Export Plug-In . SVG Version: 2.1.3 Build 182)  -->
  <defs>
    <style>
      .st0 {
        fill: #1ec57a;
      }
    </style>
  </defs>
  <g>
    <path d="M144.7,35.1c-1.1-.6-2.3-1-3.5-1.1v-.3c1.1-.3,2.2-.7,3-1.3.9-.6,1.6-1.4,2.1-2.4.5-1,.8-2.1.8-3.4s-.4-3.1-1.2-4.3c-.8-1.3-2-2.3-3.6-3-1.6-.7-3.6-1.1-6-1.1h-13.1v32.7h14c2.5,0,4.5-.4,6.2-1.2,1.7-.8,2.9-1.9,3.8-3.2.9-1.4,1.3-2.9,1.3-4.7s-.3-3-1-4.2c-.7-1.2-1.6-2.1-2.7-2.7ZM130.1,23.9h5.3c1.5,0,2.7.4,3.5,1.1.8.7,1.3,1.7,1.3,2.9s-.2,1.6-.7,2.2c-.4.6-1,1.1-1.8,1.4-.7.3-1.6.5-2.5.5h-5.1v-8.1ZM140,44.2c-.9.7-2.3,1.1-4.2,1.1h-5.6v-8.7h5.8c1.1,0,2.1.2,2.9.6.8.4,1.4.9,1.9,1.6s.7,1.5.7,2.4-.4,2.2-1.3,3Z"/>
    <path d="M181.8,28.1c-1-.7-2.1-1.2-3.3-1.5-1.2-.3-2.6-.5-3.9-.5-2,0-3.7.3-5.2.9-1.5.6-2.7,1.4-3.6,2.5-.9,1.1-1.6,2.4-1.9,3.9l6.3.5c.2-.8.7-1.5,1.4-2,.7-.5,1.7-.8,2.9-.8s2.1.3,2.7.8c.6.6,1,1.3,1,2.3h0c0,.6-.2,1-.6,1.3-.4.3-1,.5-1.9.6-.9.1-2,.3-3.5.4-1.2.1-2.4.3-3.5.6-1.1.3-2.1.7-2.9,1.3-.9.6-1.5,1.3-2,2.2-.5.9-.8,2.1-.8,3.4s.4,3,1.1,4.1c.7,1.1,1.7,1.9,2.9,2.4,1.2.5,2.6.8,4.2.8s2.3-.2,3.2-.5c.9-.3,1.7-.8,2.4-1.4.7-.6,1.2-1.3,1.6-2h.2v3.4h6.5v-16.6c0-1.5-.3-2.7-.8-3.8-.6-1.1-1.3-1.9-2.3-2.6ZM178.2,42.2c0,.9-.2,1.6-.7,2.3-.4.7-1,1.2-1.8,1.6-.8.4-1.7.6-2.7.6s-1.9-.2-2.6-.7c-.7-.5-1-1.2-1-2.1s.2-1.2.5-1.6c.3-.4.8-.8,1.4-1,.6-.3,1.3-.4,2.1-.6.4,0,.8-.1,1.2-.2.5,0,.9-.2,1.4-.2.5,0,.9-.2,1.2-.3.4-.1.7-.2.9-.4v2.6Z"/>
    <path d="M210.4,47c.9-1.4,1.4-3.1,1.5-5h-6.4c-.1.9-.4,1.6-.8,2.2-.4.6-.9,1.1-1.6,1.4-.6.3-1.3.5-2.1.5s-2-.3-2.8-.9c-.8-.6-1.4-1.4-1.8-2.5-.4-1.1-.6-2.4-.6-4s.2-2.9.7-3.9c.4-1.1,1-1.9,1.8-2.5.8-.6,1.7-.9,2.8-.9s2.3.4,3,1.1c.8.7,1.3,1.7,1.4,3h6.4c0-1.9-.6-3.5-1.6-5s-2.2-2.5-3.8-3.3c-1.6-.8-3.5-1.2-5.6-1.2s-4.6.5-6.4,1.6c-1.8,1.1-3.2,2.6-4.2,4.5-1,1.9-1.5,4.1-1.5,6.6s.5,4.7,1.4,6.6c1,1.9,2.4,3.4,4.2,4.5,1.8,1.1,4,1.6,6.5,1.6s4.1-.4,5.7-1.2c1.6-.8,2.8-1.9,3.8-3.3Z"/>
    <polygon points="229.6 37.1 238.7 26.5 230.9 26.5 223 35.8 222.6 35.8 222.6 18.3 215.8 18.3 215.8 51 222.6 51 222.6 43.2 224.5 41.1 231.2 51 239.1 51 229.6 37.1"/>
    <path d="M300,28.1c-1-.7-2.1-1.2-3.3-1.5-1.2-.3-2.6-.5-3.9-.5-2,0-3.7.3-5.2.9-1.5.6-2.7,1.4-3.6,2.5-.9,1.1-1.6,2.4-1.9,3.9l6.3.5c.2-.8.7-1.5,1.4-2,.7-.5,1.7-.8,2.9-.8s2.1.3,2.7.8c.6.6,1,1.3,1,2.3h0c0,.6-.2,1-.6,1.3-.4.3-1,.5-1.9.6-.9.1-2,.3-3.5.4-1.2.1-2.4.3-3.5.6-1.1.3-2.1.7-2.9,1.3-.9.6-1.5,1.3-2,2.2-.5.9-.8,2.1-.8,3.4s.4,3,1.1,4.1c.7,1.1,1.7,1.9,2.9,2.4,1.2.5,2.6.8,4.2.8s2.3-.2,3.2-.5c.9-.3,1.7-.8,2.4-1.4.7-.6,1.2-1.3,1.6-2h.2v3.4h6.5v-16.6c0-1.5-.3-2.7-.8-3.8-.6-1.1-1.3-1.9-2.3-2.6ZM296.4,42.2c0,.9-.2,1.6-.7,2.3-.4.7-1,1.2-1.8,1.6-.8.4-1.7.6-2.7.6s-1.9-.2-2.6-.7c-.7-.5-1-1.2-1-2.1s.2-1.2.5-1.6c.3-.4.8-.8,1.4-1,.6-.3,1.3-.4,2.1-.6.4,0,.8-.1,1.2-.2.5,0,.9-.2,1.4-.2.5,0,.9-.2,1.2-.3.4-.1.7-.2.9-.4v2.6Z"/>
    <polygon points="248.4 29.6 248.7 29.6 257.2 50.8 261.7 50.8 270.2 29.7 270.5 29.7 270.5 51 277.2 51 277.2 18.3 268.6 18.3 259.6 40.3 259.2 40.3 250.2 18.3 241.7 18.3 241.7 51 248.4 51 248.4 29.6"/>
    <path d="M319.7,45.8c-.3,0-.6,0-1,0-.5,0-.9,0-1.2-.2-.3-.1-.6-.4-.8-.7-.2-.4-.3-.8-.3-1.5v-11.9h4.6v-5.1h-4.6v-5.9h-6.8v5.9h-3.4v5.1h3.4v12.8c0,1.6.3,2.9,1,4s1.6,1.8,2.9,2.3c1.2.5,2.7.7,4.3.7.9,0,1.6-.1,2.3-.3.6-.1,1.1-.3,1.4-.4l-1.1-5.1c-.2,0-.4,0-.7.1Z"/>
    <path d="M336.7,45.8c-.3,0-.6,0-1,0-.5,0-.9,0-1.2-.2-.3-.1-.6-.4-.8-.7-.2-.4-.3-.8-.3-1.5v-11.9h4.6v-5.1h-4.6v-5.9h-6.8v5.9h-3.4v5.1h3.4v12.8c0,1.6.3,2.9,1,4s1.6,1.8,2.9,2.3c1.2.5,2.7.7,4.3.7.9,0,1.6-.1,2.3-.3.6-.1,1.1-.3,1.4-.4l-1.1-5.1c-.2,0-.4,0-.7.1Z"/>
    <path d="M360.9,29.2c-1-1-2.3-1.8-3.7-2.3-1.4-.5-2.9-.8-4.5-.8-2.4,0-4.5.5-6.3,1.6-1.8,1.1-3.2,2.6-4.1,4.5s-1.5,4.1-1.5,6.6.5,4.8,1.5,6.7c1,1.9,2.4,3.3,4.2,4.4,1.8,1,4,1.5,6.5,1.5s3.8-.3,5.4-.9c1.6-.6,2.8-1.5,3.8-2.6,1-1.1,1.6-2.5,2-4l-6.3-.4c-.2.6-.6,1.1-1,1.6s-1,.7-1.6,1-1.3.3-2.1.3c-1.1,0-2.1-.2-3-.7-.8-.5-1.5-1.2-1.9-2-.4-.9-.7-1.9-.7-3.1h0s16.7,0,16.7,0v-1.9c0-2.1-.3-3.9-.9-5.5-.6-1.6-1.4-2.9-2.5-3.9ZM347.6,36.3c0-.9.3-1.7.7-2.4.4-.8,1.1-1.4,1.9-1.9.8-.5,1.7-.7,2.7-.7s1.9.2,2.6.7c.8.4,1.3,1,1.8,1.8.4.8.6,1.6.6,2.6h-10.3Z"/>
    <path d="M382.1,26.2c-.4,0-.8,0-1.1,0-1.4,0-2.6.4-3.6,1.2-1.1.8-1.8,1.9-2.3,3.5h-.3v-4.3h-6.6v24.5h6.8v-13.9c0-1,.2-1.9.7-2.7.5-.8,1.1-1.4,1.9-1.8.8-.4,1.7-.7,2.7-.7s1,0,1.6.1,1,.2,1.3.3v-6c-.3,0-.6-.1-1-.2Z"/>
    <rect x="152.4" y="18.3" width="6.8" height="32.7"/>
    <g>
      <path d="M164.7,72.8c-.8-.8-1.7-1.3-2.7-1.7-1-.3-2-.5-3.1-.5-1.8,0-3.4.4-4.7,1.3-1.3.9-2.4,2.1-3.1,3.6-.7,1.5-1.1,3.3-1.1,5.4s.4,3.8,1.1,5.3c.7,1.5,1.8,2.7,3.2,3.6,1.4.8,3,1.3,4.9,1.3s2.5-.2,3.6-.6c1.1-.4,2-1,2.7-1.8.7-.8,1.3-1.6,1.6-2.6l-2.9-.8c-.3.7-.6,1.3-1.1,1.7-.5.5-1,.8-1.7,1-.6.2-1.4.3-2.2.3-1.2,0-2.3-.3-3.2-.8-.9-.5-1.7-1.3-2.2-2.4-.5-.9-.7-2.1-.8-3.4h14.4v-1.3c0-1.8-.2-3.4-.7-4.7-.5-1.3-1.1-2.3-2-3ZM153,79.2c0-.9.3-1.8.7-2.6.5-1,1.1-1.7,2-2.3.9-.6,1.9-.9,3.1-.9s2.1.3,2.9.8c.8.5,1.4,1.2,1.9,2.1.4.9.7,1.9.7,3h-11.3Z"/>
      <polygon points="123.2 67.1 131.5 67.1 131.5 90.7 134.7 90.7 134.7 67.1 143 67.1 143 64.3 123.2 64.3 123.2 67.1"/>
      <path d="M180.2,74.3c.9-.6,1.9-.9,3.1-.9s2.4.4,3.2,1.1c.8.7,1.3,1.5,1.5,2.4h3c-.2-1.2-.6-2.3-1.3-3.2-.7-.9-1.6-1.7-2.7-2.2-1.1-.5-2.4-.8-3.8-.8s-3.4.4-4.7,1.3c-1.3.9-2.4,2.1-3.1,3.6-.7,1.5-1.1,3.3-1.1,5.3s.4,3.7,1.1,5.3c.7,1.5,1.8,2.7,3.1,3.6,1.3.9,2.9,1.3,4.8,1.3s2.7-.3,3.8-.8c1.1-.6,2-1.3,2.7-2.2.7-.9,1.1-2,1.3-3.2h-3c-.2.7-.5,1.3-1,1.9-.4.5-1,.9-1.6,1.2-.6.3-1.4.4-2.2.4-1.2,0-2.3-.3-3.1-.9-.9-.6-1.6-1.5-2.1-2.6-.5-1.1-.7-2.5-.7-4s.2-2.8.7-3.9c.5-1.1,1.2-2,2.1-2.6Z"/>
      <path d="M233.4,71.4c-1-.6-2.2-.8-3.5-.8s-2.7.3-3.7.9c-.9.6-1.7,1.4-2.1,2.4h-.3v-3.1h-2.9v19.8h3v-11.9c0-1.2.2-2.1.7-2.9.4-.8,1-1.4,1.8-1.8.8-.4,1.6-.6,2.6-.6,1.4,0,2.5.4,3.3,1.3.8.9,1.2,2.1,1.2,3.6v12.4h3v-12.6c0-1.7-.3-3.1-.8-4.2-.6-1.1-1.3-1.9-2.3-2.5Z"/>
      <g>
        <path d="M330,63.5c-.6,0-1.1.2-1.5.6-.4.4-.6.9-.6,1.5s.2,1.1.6,1.5c.4.4.9.6,1.5.6s1.1-.2,1.5-.6c.4-.4.6-.9.6-1.5s-.2-1.1-.6-1.5c-.4-.4-.9-.6-1.5-.6Z"/>
        <rect x="328.5" y="70.9" width="3" height="19.8"/>
      </g>
      <path d="M353.9,72.8c-.8-.8-1.7-1.3-2.7-1.7-1-.3-2-.5-3.1-.5-1.8,0-3.4.4-4.7,1.3-1.3.9-2.4,2.1-3.1,3.6-.7,1.5-1.1,3.3-1.1,5.4s.4,3.8,1.1,5.3c.7,1.5,1.8,2.7,3.2,3.6,1.4.8,3,1.3,4.9,1.3s2.5-.2,3.6-.6c1.1-.4,2-1,2.7-1.8.7-.8,1.3-1.6,1.6-2.6l-2.9-.8c-.3.7-.6,1.3-1.1,1.7-.5.5-1,.8-1.7,1-.6.2-1.4.3-2.2.3-1.2,0-2.3-.3-3.2-.8-.9-.5-1.7-1.3-2.2-2.4-.5-.9-.7-2.1-.8-3.4h14.4v-1.3c0-1.8-.2-3.4-.7-4.7-.5-1.3-1.1-2.3-2-3ZM342.3,79.2c0-.9.3-1.8.7-2.6.5-1,1.1-1.7,2-2.3.9-.6,1.9-.9,3.1-.9s2.1.3,2.9.8c.8.5,1.4,1.2,1.9,2.1.4.9.7,1.9.7,3h-11.3Z"/>
      <path d="M373.6,79.8l-2.9-.7c-1.2-.3-2-.7-2.6-1.1-.6-.4-.8-1-.8-1.8s.4-1.6,1.2-2.1c.8-.6,1.8-.8,3-.8s1.6.1,2.2.4,1,.6,1.3,1.1c.3.4.6.9.8,1.3l2.7-.8c-.5-1.4-1.3-2.5-2.4-3.4-1.1-.9-2.7-1.3-4.6-1.3s-2.6.2-3.7.7c-1.1.5-2,1.2-2.6,2-.6.9-.9,1.8-.9,3s.4,2.5,1.3,3.4c.9.9,2.2,1.6,4,2l3.3.8c1,.2,1.7.6,2.2,1.1.5.5.7,1,.7,1.7s-.4,1.6-1.3,2.2c-.8.6-2,.9-3.4.9s-2.3-.3-3-.8c-.8-.5-1.3-1.3-1.6-2.4l-2.9.7c.4,1.7,1.2,3,2.5,3.8,1.3.9,3,1.3,5,1.3s2.9-.3,4-.8c1.2-.5,2.1-1.2,2.7-2.1.7-.9,1-1.9,1-3s-.4-2.5-1.3-3.4c-.9-.9-2.2-1.5-4-2Z"/>
      <rect x="268.5" y="64.3" width="3" height="26.4"/>
      <path d="M318,74h-.3c-.2-.3-.5-.8-1-1.3-.4-.5-1-1-1.8-1.4-.8-.4-1.8-.6-3.1-.6s-3.1.4-4.4,1.3c-1.3.8-2.3,2-3,3.5-.7,1.5-1.1,3.3-1.1,5.3s.4,3.8,1.1,5.3c.7,1.4,1.7,2.5,3,3.3,1.3.8,2.7,1.1,4.3,1.1s2.3-.2,3.1-.6c.8-.4,1.3-.9,1.8-1.4.4-.5.7-1,1-1.3h.3v4c0,1.7-.5,2.9-1.6,3.6-1,.8-2.4,1.2-4,1.2s-2.2-.2-2.9-.5c-.7-.3-1.3-.8-1.7-1.2-.4-.5-.8-.9-1-1.2l-2.4,1.7c.4.7,1,1.3,1.7,1.9.7.6,1.6,1.1,2.6,1.5,1.1.4,2.3.6,3.8.6s3-.3,4.3-.8c1.3-.5,2.3-1.3,3.1-2.4.8-1.1,1.2-2.4,1.2-4.2v-20.4h-2.9v3.1ZM317.3,84.4c-.4,1-1.1,1.9-1.9,2.4-.8.6-1.9.8-3.1.8s-2.3-.3-3.2-.9c-.9-.6-1.5-1.4-1.9-2.5-.4-1.1-.6-2.3-.6-3.6s.2-2.6.6-3.7c.4-1.1,1.1-2,1.9-2.6.9-.7,1.9-1,3.2-1s2.3.3,3.1.9c.8.6,1.5,1.5,1.9,2.6.4,1.1.6,2.4.6,3.8s-.2,2.7-.7,3.8Z"/>
      <path d="M210.8,71.4c-1-.5-2.2-.8-3.5-.8s-2.8.3-3.7.9c-.9.6-1.6,1.4-2.1,2.4h-.3v-9.7h-3v26.4h3v-11.9c0-1.2.2-2.1.7-2.9.5-.8,1.1-1.4,1.9-1.8.8-.4,1.7-.6,2.7-.6,1.4,0,2.6.4,3.4,1.3.8.9,1.2,2.1,1.2,3.6v12.4h3v-12.6c0-1.7-.3-3.1-.9-4.2-.6-1.1-1.3-1.9-2.4-2.5Z"/>
      <path d="M257.2,71.9c-1.3-.9-2.9-1.3-4.7-1.3s-3.4.4-4.7,1.3c-1.3.9-2.4,2-3.1,3.6-.7,1.5-1.1,3.3-1.1,5.4s.4,3.8,1.1,5.4c.8,1.5,1.8,2.7,3.1,3.6,1.3.9,2.9,1.3,4.7,1.3s3.4-.4,4.7-1.3c1.3-.9,2.4-2,3.1-3.6.8-1.5,1.1-3.3,1.1-5.4s-.4-3.9-1.1-5.4c-.7-1.5-1.8-2.7-3.1-3.6ZM257.9,84.6c-.4,1.1-1.1,2-1.9,2.7-.9.7-2,1-3.4,1s-2.5-.3-3.4-1c-.9-.7-1.5-1.6-1.9-2.7-.4-1.1-.6-2.4-.6-3.7s.2-2.6.6-3.7c.4-1.1,1.1-2.1,1.9-2.8.9-.7,2-1.1,3.4-1.1s2.5.4,3.4,1.1c.9.7,1.5,1.6,1.9,2.8.4,1.1.6,2.4.6,3.7s-.2,2.6-.6,3.7Z"/>
      <path d="M292.2,71.9c-1.3-.9-2.9-1.3-4.7-1.3s-3.4.4-4.7,1.3c-1.3.9-2.4,2-3.1,3.6-.7,1.5-1.1,3.3-1.1,5.4s.4,3.8,1.1,5.4c.8,1.5,1.8,2.7,3.1,3.6,1.3.9,2.9,1.3,4.7,1.3s3.4-.4,4.7-1.3c1.3-.9,2.4-2,3.1-3.6.8-1.5,1.1-3.3,1.1-5.4s-.4-3.9-1.1-5.4c-.7-1.5-1.8-2.7-3.1-3.6ZM292.8,84.6c-.4,1.1-1.1,2-1.9,2.7s-2,1-3.4,1-2.5-.3-3.4-1-1.5-1.6-1.9-2.7c-.4-1.1-.6-2.4-.6-3.7s.2-2.6.6-3.7c.4-1.1,1.1-2.1,1.9-2.8.9-.7,2-1.1,3.4-1.1s2.5.4,3.4,1.1c.9.7,1.5,1.6,1.9,2.8.4,1.1.6,2.4.6,3.7s-.2,2.6-.6,3.7Z"/>
    </g>
  </g>
  <path class="st0" d="M100.5,0c-2.3,0-5,2.3-6.9,3.5-8.6,6.3-16.2,14-23.6,21.6-4.9,5.1-9.8,10.2-14.5,15.5-1.9,2.1-3.8,4.4-5.7,6.4,2.6,0,5.7.1,8.2,0-6.1,4.9-11.7,11.1-16.9,16.9-1.8,2-3.6,4.5-5.4,6.4,1.9-5.3,3.4-10.2,6.6-14.9.3-.5.7-1.1,1-1.6h-6.3s1.2-2.1,1.2-2.1c.3-.5.6-1.1.9-1.6,2.4-4.3,4.9-8.7,7.4-13,1.6-2.7,3.7-5.6,5.2-8.4,2.7-4.9,4.8-10.8,6.4-16.2.8-3.4,2.3-8,1.1-11.4-.5-1.3-2.6-.4-3.5.2-2.5,1.9-4.5,4.6-6.5,7.1-3.5,4.3-6.6,8.9-9.4,13.7-4.1,6.8-7.2,13.1-9.5,20.8-.7,2.2-1.4,4.6-1.8,6.9-.2.9-.4,1.9-.6,2.9-1.2,8.4-.9,14,.4,22.5-2.9-1.9-3.6-4-5-6.9,0,5.5.3,11,.8,16.5.8,7.4,2,17.4,11.7,17.4,1.3,0,2.6-.2,3.8-.6,1.8-.6,4.2-1.7,5.9-2.6,5.8-3,11.4-6.4,16.9-9.8l1.7-1.1c13-7.8,15.1-20.6,10.4-34-.6.3-1.6,1.2-2.1,1.6-1.2,1-2.4,1.9-3.6,2.9-2.5,2-5,4-7.5,6,.3,2.3.1,4.4-1.3,6.3-4.1,5.5-11.4,7.7-17.8,8.7.6-.9,1.2-1.9,1.9-2.8,3.1-4.1,6.7-8,10.3-11.7,3.4-3.5,6.8-7,10.3-10.4,6.3-6.2,12.7-12.2,19.3-18.1,2.1-1.9,4.3-3.9,6.5-5.7,0,0,0,0,0,0,.3-.3.9-.8,1-1,0,0,0,0,0,0,6-5.6,11.1-15.5,11.8-23.5.2-2,0-6.3-2.8-6.3ZM82,24.2s0,0,0,0c0,0,0,0,0,0Z"/>
</svg>